<?xml version="1.0" encoding="utf-8"?>
<!-- Generator: Adobe Illustrator 22.0.1, SVG Export Plug-In . SVG Version: 6.00 Build 0)  -->
<svg version="1.1" id="logo-hsrTech" xmlns="http://www.w3.org/2000/svg" xmlns:xlink="http://www.w3.org/1999/xlink" x="0px"
	 y="0px" viewBox="0 0 312.4 99.2" style="enable-background:new 0 0 312.4 99.2;" xml:space="preserve">
<style type="text/css">
	.st0{fill:#585858;}
	.st1{fill:#00AEAC;}
	.st2{fill:#58595B;}
</style>
<g id="logo">
	<path class="st0" d="M112.7,95.7l-0.9-0.5c8.3-14.6,10.4-31.5,6-47.7c-4.4-16.2-14.9-29.7-29.5-37.9c-14.6-8.3-31.5-10.4-47.7-6
		C24.6,8,11.3,18.3,2.9,32.7l7.2,4.1l-0.5,0.9l-8.1-4.6l0.2-0.4c8.4-14.8,22.1-25.4,38.5-30C56.8-1.8,74,0.3,88.8,8.8
		c14.8,8.4,25.4,22.1,30,38.5C123.3,63.7,121.1,80.9,112.7,95.7z"/>
	<path class="st1" d="M57.8,89.9h-0.5c-14.2,0-25.7-11.5-25.7-25.7c0-14.2,11.5-25.7,25.7-25.7h0.5v25.2h53.3
		c-0.3-29.6-24.4-53.5-54-53.5c-29.8,0-54,24.2-54,54h-1c0-30.3,24.7-55,55-55c30.3,0,55,24.7,55,55v0.5H56.9V39.5
		c-13.4,0.3-24.3,11.3-24.3,24.7c0,13.5,10.8,24.5,24.3,24.7v-7.9h1V89.9z"/>
	<path class="st1" d="M39.6,94.7C22.7,85,16.9,63.4,26.7,46.6c4.7-8.2,12.3-14,21.4-16.4c9.1-2.4,18.6-1.2,26.7,3.5l-0.5,0.9
		c-7.9-4.6-17.2-5.8-26-3.4c-8.8,2.4-16.2,8-20.8,16C18.1,63.4,23.7,84.4,40,93.9L39.6,94.7z"/>
	<path class="st1" d="M57.4,63.8"/>
	<path class="st1" d="M57.2,81.2c-1,0-2-0.1-3-0.3c-4.5-0.8-8.4-3.3-11.1-7c-5.4-7.7-3.6-18.4,4.2-23.9l0.6,0.8
		c-7.3,5.1-9,15.2-3.9,22.5c2.5,3.5,6.2,5.9,10.4,6.6c4.2,0.7,8.5-0.2,12.1-2.7l0.6,0.8C64.1,80.2,60.7,81.2,57.2,81.2z"/>
	<path class="st1" d="M18.7,87l-0.2-0.4c-12.3-21.4-5-48.8,16.4-61.1c21.4-12.3,48.8-5,61.1,16.4l-0.9,0.5
		C83,21.4,56.2,14.2,35.3,26.3c-20.8,12-28,38.5-16.3,59.4l7.5-4.3l0.5,0.9L18.7,87z"/>
	<path class="st1" d="M4.5,66c0,1.1-0.9,2-2,2c-1.1,0-2-0.9-2-2c0-1.1,0.9-2,2-2C3.6,64,4.5,64.9,4.5,66z"/>
	<path class="st1" d="M43.4,95.1c0,1.1-0.9,2-2,2c-1.1,0-2-0.9-2-2c0-1.1,0.9-2,2-2C42.5,93.1,43.4,94,43.4,95.1z"/>
	<path class="st1" d="M70,76.5c0,1.1-0.9,2-2,2c-1.1,0-2-0.9-2-2c0-1.1,0.9-2,2-2C69.1,74.5,70,75.4,70,76.5z"/>
	<path class="st1" d="M51,49.4c0,1.1-0.9,2-2,2c-1.1,0-2-0.9-2-2c0-1.1,0.9-2,2-2C50.1,47.4,51,48.3,51,49.4z"/>
	<path class="st1" d="M77.9,35.2c0,1.1-0.9,2-2,2c-1.1,0-2-0.9-2-2c0-1.1,0.9-2,2-2C77,33.2,77.9,34.1,77.9,35.2z"/>
	<path class="st1" d="M98.4,43.6c0,1.1-0.9,2-2,2c-1.1,0-2-0.9-2-2c0-1.1,0.9-2,2-2C97.5,41.6,98.4,42.5,98.4,43.6z"/>
	<path class="st2" d="M113.4,97.1c0,1.1-0.9,2-2,2c-1.1,0-2-0.9-2-2c0-1.1,0.9-2,2-2C112.5,95.1,113.4,96,113.4,97.1z"/>
</g>
<g id="hsrTech">
	<path class="st0" d="M130.8,61.8h2.1v15.4h15.4V61.8h2.1V97h-2.1V79.1h-15.4V97h-2.1V61.8z"/>
	<path class="st1" d="M157.2,88c0,4.5,2.9,7.9,8,7.9c4.9,0,8.1-3.5,8.1-8c0-4.6-2.5-6.2-6.4-7.5l-4-1.4c-4.6-1.6-7.2-3.9-7.2-8.6
		c0-5.7,3.9-9.2,9.4-9.2c6.5,0,9.4,3.7,9.4,9.6h-2.1c0-4.7-2.2-7.9-7.2-7.9c-3.9,0-7.5,1.8-7.5,7.3c0,3.9,2.1,5.8,5.2,6.8l5.2,1.8
		c4.5,1.6,7.2,3.8,7.2,9c0,6.3-4.6,9.8-10.2,9.8c-8.1,0-10.1-5.7-10.1-9.1v-2.3h2.1V88z"/>
	<path class="st1" d="M180.1,61.8h10.3c4.9,0,8.7,2.8,8.7,9.2c0,4.6-2.5,8.2-7.1,8.7v0.1c5.8,0.3,6.8,3.9,6.8,8.7v3.7
		c0,2,0.3,3.3,1.2,4.7h-2.4c-0.5-1-0.9-2.7-0.9-4.8v-3.6c0-5-1.4-7.9-7.1-7.9h-7.6V97h-2.1V61.8z M188.8,79c3.9,0,8.3-1.3,8.3-8
		c0-4.7-2.7-7.5-7-7.5h-7.9V79H188.8z"/>
	<path class="st0" d="M226.9,97h-4.3V66.3H214v-3.8h21.6v3.8h-8.7V97z"/>
	<path class="st0" d="M238.8,62.5h17.8v3.8h-13.6v10.8h12.8v3.8h-12.8v12.4h14.2V97h-18.4V62.5z"/>
	<path class="st0" d="M282.3,85.2c-0.4,6.5-3,12.5-10.5,12.5c-9.8,0-11.1-9.2-11.1-17.9c0-8.7,1.6-17.9,11.1-17.9
		c7.1,0,10,4,10.2,10.7h-4.4c-0.1-3.9-1.4-7.3-5.8-7.3c-5.9,0-6.7,6.5-6.7,14.5c0,8,0.8,14.5,6.7,14.5c5.2,0,5.9-4.8,6-9H282.3z"/>
	<path class="st0" d="M306.6,97h-4.3V80.4h-11.8V97h-4.3V62.5h4.3v14.1h11.8V62.5h4.3V97z"/>
</g>
</svg>
